<mxfile host="65bd71144e">
    <diagram id="crqGSq1d926hmPeExlcz" name="Página-1">
        <mxGraphModel dx="482" dy="397" grid="1" gridSize="10" guides="1" tooltips="1" connect="1" arrows="1" fold="1" page="1" pageScale="1" pageWidth="827" pageHeight="1169" math="0" shadow="0">
            <root>
                <mxCell id="0"/>
                <mxCell id="1" parent="0"/>
                <mxCell id="2" value="Entidad Geográfica (A)" style="swimlane;fontStyle=1;childLayout=stackLayout;horizontal=1;startSize=30;horizontalStack=0;resizeParent=1;resizeParentMax=0;resizeLast=0;collapsible=1;marginBottom=0;" vertex="1" parent="1">
                    <mxGeometry x="360" y="60" width="140" height="80" as="geometry"/>
                </mxCell>
                <mxCell id="3" value="Código: 1 texto&#10;Nombre: 1 texto" style="text;strokeColor=none;fillColor=none;align=left;verticalAlign=middle;spacingLeft=4;spacingRight=4;overflow=hidden;points=[[0,0.5],[1,0.5]];portConstraint=eastwest;rotatable=0;" vertex="1" parent="2">
                    <mxGeometry y="30" width="140" height="50" as="geometry"/>
                </mxCell>
                <mxCell id="6" value="X: 1 número&#10;Y: 1 número&#10;Z: 1 número" style="swimlane;fontStyle=0;childLayout=stackLayout;horizontal=1;startSize=60;horizontalStack=0;resizeParent=1;resizeParentMax=0;resizeLast=0;collapsible=1;marginBottom=0;align=left;" vertex="1" parent="1">
                    <mxGeometry x="80" y="400" width="140" height="60" as="geometry"/>
                </mxCell>
                <mxCell id="10" value="" style="swimlane;startSize=0;" vertex="1" parent="1">
                    <mxGeometry x="80" y="300" width="150" height="40" as="geometry"/>
                </mxCell>
                <mxCell id="17" value="&lt;b&gt;Punto&lt;/b&gt;" style="text;html=1;strokeColor=none;fillColor=none;align=center;verticalAlign=middle;whiteSpace=wrap;rounded=0;" vertex="1" parent="10">
                    <mxGeometry x="45" y="10" width="60" height="30" as="geometry"/>
                </mxCell>
                <mxCell id="12" value="" style="swimlane;startSize=0;" vertex="1" parent="1">
                    <mxGeometry x="360" y="300" width="150" height="40" as="geometry"/>
                </mxCell>
                <mxCell id="18" value="&lt;b&gt;Línea&lt;/b&gt;" style="text;html=1;strokeColor=none;fillColor=none;align=center;verticalAlign=middle;whiteSpace=wrap;rounded=0;" vertex="1" parent="12">
                    <mxGeometry x="45" y="5" width="60" height="30" as="geometry"/>
                </mxCell>
                <mxCell id="14" value="" style="swimlane;startSize=0;" vertex="1" parent="1">
                    <mxGeometry x="620" y="300" width="150" height="40" as="geometry"/>
                </mxCell>
                <mxCell id="19" value="&lt;b&gt;Área&lt;/b&gt;" style="text;html=1;strokeColor=none;fillColor=none;align=center;verticalAlign=middle;whiteSpace=wrap;rounded=0;" vertex="1" parent="14">
                    <mxGeometry x="45" y="5" width="60" height="30" as="geometry"/>
                </mxCell>
                <mxCell id="15" value="" style="swimlane;startSize=0;" vertex="1" parent="1">
                    <mxGeometry x="360" y="400" width="150" height="40" as="geometry"/>
                </mxCell>
                <mxCell id="16" value="" style="swimlane;startSize=0;" vertex="1" parent="1">
                    <mxGeometry x="620" y="400" width="150" height="40" as="geometry"/>
                </mxCell>
                <mxCell id="20" value="" style="edgeStyle=segmentEdgeStyle;endArrow=classic;html=1;exitX=0.5;exitY=0;exitDx=0;exitDy=0;" edge="1" parent="1" source="10">
                    <mxGeometry width="50" height="50" relative="1" as="geometry">
                        <mxPoint x="250" y="330" as="sourcePoint"/>
                        <mxPoint x="436" y="140" as="targetPoint"/>
                        <Array as="points">
                            <mxPoint x="155" y="220"/>
                            <mxPoint x="436" y="220"/>
                        </Array>
                    </mxGeometry>
                </mxCell>
                <mxCell id="21" value="" style="edgeStyle=segmentEdgeStyle;endArrow=classic;html=1;entryX=0.537;entryY=0.979;entryDx=0;entryDy=0;entryPerimeter=0;exitX=0.5;exitY=0;exitDx=0;exitDy=0;" edge="1" parent="1" source="12" target="3">
                    <mxGeometry width="50" height="50" relative="1" as="geometry">
                        <mxPoint x="250" y="330" as="sourcePoint"/>
                        <mxPoint x="300" y="280" as="targetPoint"/>
                    </mxGeometry>
                </mxCell>
                <mxCell id="22" value="" style="edgeStyle=segmentEdgeStyle;endArrow=classic;html=1;entryX=0.547;entryY=1.038;entryDx=0;entryDy=0;entryPerimeter=0;exitX=0.639;exitY=-0.064;exitDx=0;exitDy=0;exitPerimeter=0;" edge="1" parent="1" source="14" target="3">
                    <mxGeometry width="50" height="50" relative="1" as="geometry">
                        <mxPoint x="470" y="220" as="sourcePoint"/>
                        <mxPoint x="520" y="170" as="targetPoint"/>
                        <Array as="points">
                            <mxPoint x="716" y="220"/>
                            <mxPoint x="437" y="220"/>
                        </Array>
                    </mxGeometry>
                </mxCell>
                <mxCell id="23" value="" style="edgeStyle=segmentEdgeStyle;endArrow=classic;html=1;exitX=0.113;exitY=1.056;exitDx=0;exitDy=0;exitPerimeter=0;entryX=0.653;entryY=1.047;entryDx=0;entryDy=0;entryPerimeter=0;" edge="1" parent="1" source="6" target="16">
                    <mxGeometry width="50" height="50" relative="1" as="geometry">
                        <mxPoint x="280" y="450" as="sourcePoint"/>
                        <mxPoint x="330" y="400" as="targetPoint"/>
                        <Array as="points">
                            <mxPoint x="96" y="570"/>
                            <mxPoint x="718" y="570"/>
                        </Array>
                    </mxGeometry>
                </mxCell>
                <mxCell id="24" value="" style="edgeStyle=segmentEdgeStyle;endArrow=classic;html=1;exitX=0.75;exitY=1;exitDx=0;exitDy=0;entryX=0.5;entryY=1;entryDx=0;entryDy=0;" edge="1" parent="1" source="6" target="15">
                    <mxGeometry width="50" height="50" relative="1" as="geometry">
                        <mxPoint x="260" y="450" as="sourcePoint"/>
                        <mxPoint x="310" y="400" as="targetPoint"/>
                        <Array as="points">
                            <mxPoint x="185" y="510"/>
                            <mxPoint x="435" y="510"/>
                        </Array>
                    </mxGeometry>
                </mxCell>
                <mxCell id="27" value="3..*" style="text;html=1;strokeColor=none;fillColor=none;align=center;verticalAlign=middle;whiteSpace=wrap;rounded=0;" vertex="1" parent="1">
                    <mxGeometry x="30" y="470" width="60" height="30" as="geometry"/>
                </mxCell>
                <mxCell id="28" value="2..*" style="text;html=1;strokeColor=none;fillColor=none;align=center;verticalAlign=middle;whiteSpace=wrap;rounded=0;" vertex="1" parent="1">
                    <mxGeometry x="125" y="480" width="60" height="30" as="geometry"/>
                </mxCell>
                <mxCell id="29" value="0..*" style="text;html=1;strokeColor=none;fillColor=none;align=center;verticalAlign=middle;whiteSpace=wrap;rounded=0;" vertex="1" parent="1">
                    <mxGeometry x="430" y="470" width="60" height="30" as="geometry"/>
                </mxCell>
                <mxCell id="30" value="Text" style="text;html=1;strokeColor=none;fillColor=none;align=center;verticalAlign=middle;whiteSpace=wrap;rounded=0;" vertex="1" parent="1">
                    <mxGeometry x="710" y="470" width="60" height="30" as="geometry"/>
                </mxCell>
            </root>
        </mxGraphModel>
    </diagram>
</mxfile>